<?xml version="1.0" encoding="utf-8"?>
<!-- Generator: Adobe Illustrator 25.2.0, SVG Export Plug-In . SVG Version: 6.00 Build 0)  -->
<svg version="1.1" id="Layer_1" xmlns="http://www.w3.org/2000/svg" xmlns:xlink="http://www.w3.org/1999/xlink" x="0px" y="0px"
	 viewBox="0 0 200 200" style="enable-background:new 0 0 200 200;" xml:space="preserve">
<style type="text/css">
	.st0{fill:none;stroke:#E6E6E6;stroke-width:8;stroke-miterlimit:10;}
	.st1{fill:#E6E6E6;}
	.st2{fill:none;stroke:#E6E6E6;stroke-width:2;stroke-miterlimit:10;}
</style>
<path class="st0" d="M126.8,132.8c0,0.3,0,0.6,0,0.9v10.9c0,1.5-0.3,3-0.9,4.3l-44.2,5.6c-0.6,0.1-1.2,0-1.8-0.2c0,0,0,0,0,0
	c-0.4-0.2-0.8-0.5-1.2-0.8c0,0,0,0,0,0c-2.7-2-4.5-5.3-4.5-8.9v-9.3c-14-8.3-23.3-23.6-23.3-41c0-26.4,21.4-47.7,47.7-47.7
	c26.4,0,47.7,21.4,47.7,47.7C146.4,110,138.7,124.1,126.8,132.8z"/>
<path class="st1" d="M121.7,162.9l-37.6,4.9c-1.9,0.3-3.7-1.1-4-3.1h0c-0.3-1.9,1.1-3.7,3.1-4l37.6-4.9c1.9-0.3,3.7,1.1,4,3.1l0,0
	C125,160.8,123.7,162.6,121.7,162.9z"/>
<path class="st1" d="M121.7,172.2l-37.6,4.9c-1.9,0.3-3.7-1.1-4-3.1l0,0c-0.3-1.9,1.1-3.7,3.1-4l37.6-4.9c1.9-0.3,3.7,1.1,4,3.1v0
	C125,170.2,123.7,172,121.7,172.2z"/>
<path class="st1" d="M121.7,181.8l-37.6,4.9c-1.9,0.3-3.7-1.1-4-3.1l0,0c-0.3-1.9,1.1-3.7,3.1-4l37.6-4.9c1.9-0.3,3.7,1.1,4,3.1v0
	C125,179.8,123.7,181.6,121.7,181.8z"/>
<path class="st1" d="M114.7,189.7l-23.9,3.1c-1.2,0.2-2.4-0.7-2.5-1.9l0,0c-0.2-1.2,0.7-2.4,1.9-2.5l23.9-3.1
	c1.2-0.2,2.4,0.7,2.5,1.9h0C116.8,188.4,116,189.6,114.7,189.7z"/>
<path class="st2" d="M96.3,53.8c19-0.1,35.5,12.2,40.2,29.3c3.9,14.3-0.9,30-12.4,40.4"/>
</svg>
