<?xml version="1.0" encoding="utf-8"?>
<!-- Generator: Adobe Illustrator 25.2.0, SVG Export Plug-In . SVG Version: 6.00 Build 0)  -->
<svg version="1.1" xmlns="http://www.w3.org/2000/svg" xmlns:xlink="http://www.w3.org/1999/xlink" x="0px" y="0px"
	 viewBox="0 0 200 200" style="enable-background:new 0 0 200 200;" xml:space="preserve">
<style type="text/css">
	.st0{fill:none;stroke:#BE1E2D;stroke-miterlimit:10;}
	.st1{fill:none;stroke:#BE1E2D;stroke-width:3;stroke-linecap:round;stroke-miterlimit:10;}
	.st2{fill:#BE1E2D;stroke:#BE1E2D;stroke-linecap:round;stroke-miterlimit:10;}
	.st3{fill:#BE1E2D;}
</style>
<g id="Layer_1">
</g>
<g id="Layer_2">
	<polyline class="st0" points="4.45,79.38 4.45,155.91 200,155.91 	"/>
	<polyline class="st1" points="19.01,107.1 34.36,86.23 75.76,86.23 78.91,102.46 102.15,67.68 125.16,74.17 186.74,40.78 	"/>
	<polygon class="st2" points="186.01,46.24 181.47,37.96 192.01,37.57 	"/>
	<rect x="13.55" y="121.53" class="st3" width="10.92" height="34.37"/>
	<rect x="36.54" y="99.77" class="st3" width="10.92" height="56.14"/>
	<rect x="58.38" y="99.77" class="st3" width="10.92" height="56.14"/>
	<rect x="81.36" y="121.53" class="st3" width="10.92" height="34.37"/>
	<rect x="103.81" y="79.38" class="st3" width="10.92" height="76.53"/>
	<rect x="126.79" y="87.86" class="st3" width="10.92" height="68.04"/>
	<rect x="147.57" y="68.85" class="st3" width="10.92" height="87.06"/>
	<rect x="170.56" y="56.17" class="st3" width="10.92" height="99.74"/>
</g>
</svg>
