<?xml version="1.0" encoding="utf-8"?>
<!-- Generator: Adobe Illustrator 25.2.0, SVG Export Plug-In . SVG Version: 6.00 Build 0)  -->
<svg version="1.1" id="Layer_1" xmlns="http://www.w3.org/2000/svg" xmlns:xlink="http://www.w3.org/1999/xlink" x="0px" y="0px"
	 viewBox="0 0 200 200" style="enable-background:new 0 0 200 200;" xml:space="preserve">
<style type="text/css">
	.st0{fill:none;stroke:#404040;stroke-miterlimit:10;}
	.st1{fill:none;stroke:#263A29;stroke-width:3;stroke-linecap:round;stroke-miterlimit:10;}
	.st2{fill:#EDF1D6;}
	.st3{fill:#9DC08B;}
	.st4{fill:#609966;}
	.st5{fill:#40513B;}
</style>
<g id="Layer_1_1_">
</g>
<g id="Layer_2_1_">
	<polyline class="st0" points="4.4,79.4 4.4,155.9 200,155.9 	"/>
	<polyline class="st1" points="19,107.1 34.4,86.2 75.8,86.2 78.9,102.5 102.2,67.7 125.2,74.2 186.7,40.8 	"/>
	<polygon points="186,46.2 181.5,38 192,37.6 	"/>
	<rect x="13.6" y="121.5" class="st2" width="10.9" height="34.4"/>
	<rect x="36.5" y="99.8" class="st3" width="10.9" height="56.1"/>
	<rect x="58.4" y="99.8" class="st3" width="10.9" height="56.1"/>
	<rect x="81.4" y="121.5" class="st2" width="10.9" height="34.4"/>
	<rect x="103.8" y="79.4" class="st4" width="10.9" height="76.5"/>
	<rect x="126.8" y="87.9" class="st3" width="10.9" height="68"/>
	<rect x="147.6" y="68.8" class="st4" width="10.9" height="87.1"/>
	<rect x="170.6" y="56.2" class="st5" width="10.9" height="99.7"/>
</g>
</svg>
