<?xml version="1.0" encoding="utf-8"?>
<!-- Generator: Adobe Illustrator 25.2.0, SVG Export Plug-In . SVG Version: 6.00 Build 0)  -->
<svg version="1.1" id="Layer_1" xmlns="http://www.w3.org/2000/svg" xmlns:xlink="http://www.w3.org/1999/xlink" x="0px" y="0px"
	 viewBox="0 0 50 50" style="enable-background:new 0 0 50 50;" xml:space="preserve">
<style type="text/css">
	.st0{fill:#BE1E2D;}
</style>
<path class="st0" d="M49.1,5.81L27.33,29.85c-0.55,0.61-1.26,0.94-1.97,0.98c-0.16,0.01-0.33,0.01-0.5,0
	c-0.71-0.04-1.42-0.37-1.97-0.98L1.13,5.81c-1.19-1.33-1.19-3.48,0-4.81C1.73,0.33,2.52,0,3.3,0c0.79,0,1.58,0.33,2.18,0.99
	l19.63,21.69L44.75,0.99C45.34,0.33,46.13,0,46.92,0c0.79,0,1.58,0.33,2.18,0.99C50.3,2.33,50.3,4.47,49.1,5.81z"/>
<path class="st0" d="M48.87,24.97L27.1,49.01c-0.55,0.61-1.26,0.94-1.97,0.98c-0.16,0.01-0.33,0.01-0.5,0
	c-0.71-0.04-1.42-0.37-1.97-0.98L0.9,24.97c-1.19-1.33-1.19-3.48,0-4.81c0.6-0.67,1.39-0.99,2.18-0.99c0.79,0,1.58,0.33,2.18,0.99
	l19.63,21.69l19.63-21.69c0.59-0.67,1.38-0.99,2.17-0.99c0.79,0,1.58,0.33,2.18,0.99C50.07,21.49,50.07,23.63,48.87,24.97z"/>
</svg>
