<?xml version="1.0" encoding="utf-8"?>
<!-- Generator: Adobe Illustrator 25.2.0, SVG Export Plug-In . SVG Version: 6.00 Build 0)  -->
<svg version="1.1" id="Layer_1" xmlns="http://www.w3.org/2000/svg" xmlns:xlink="http://www.w3.org/1999/xlink" x="0px" y="0px"
	 viewBox="0 0 1920 100" style="enable-background:new 0 0 1920 100;" xml:space="preserve">
<style type="text/css">
	.st0{opacity:0.74;stroke:#000000;stroke-miterlimit:10;}
	.st1{opacity:0.81;fill:#6E272D;}
</style>
<path class="st0" d="M-15,39.22c25.11,17.11,62.11,36.03,106,34c32.32-1.5,43.67-8.37,70-21c94.32-45.25,162.25,69.57,247,39
	c40.72-14.69,29.98-38.5,73-53c66.19-22.3,96.19,32.52,187,30c72.14-2,74.96-37.2,151-37c68.62,0.18,72.41,28.85,141,31
	c83,2.6,90.66-38.97,173-39c77.77-0.03,85.27,37.04,167,35c62.53-1.56,63.05-23.38,135-31c77.89-8.25,104.42,14.45,188,19
	c92.34,5.03,113.47-35.99,183-23c27.46,5.13,69.44,28.47,108,53c15.27,9.72,27.51,18.58,36,25c-653.33,9.67-1306.67,19.33-1960,29
	C-11.67,99.88-13.33,69.55-15,39.22z"/>
<path class="st1" d="M-28,115C39.65,41.44,89.92,30.24,123,33.22c42.06,3.78,54.81,29.41,109,33c47.26,3.13,58.46-17.1,116-24
	c53.89-6.46,68.66,8.34,130,14c95.52,8.81,99.94-23.37,201-23c106.93,0.4,109.77,36.45,200,27c76.6-8.03,85.22-35.13,158-34
	c67.17,1.04,71.18,24.31,141,26c78.33,1.89,82.77-27.16,157-26c83.62,1.31,92.32,38.4,167,33c68.49-4.95,69.99-36.8,134-38
	c70.75-1.33,89.19,37.19,155,37c32.27-0.09,77.49-9.5,132-52c0,32,0,64,0,96C1272.67,106.48,622.33,110.74-28,115z"/>
</svg>
