<?xml version="1.0" encoding="utf-8"?>
<!-- Generator: Adobe Illustrator 25.2.0, SVG Export Plug-In . SVG Version: 6.00 Build 0)  -->
<svg version="1.1" id="Layer_1" xmlns="http://www.w3.org/2000/svg" xmlns:xlink="http://www.w3.org/1999/xlink" x="0px" y="0px"
	 viewBox="0 0 200 200" style="enable-background:new 0 0 200 200;" xml:space="preserve">
<style type="text/css">
	.st0{fill:#BE1E2D;stroke:#BE1E2D;stroke-miterlimit:10;}
	.st1{fill:#FFFFFF;stroke:#FFFFFF;stroke-width:0.5;stroke-miterlimit:10;}
	.st2{fill:none;}
	.st3{fill:#BE1E2D;}
	.st4{font-family:'ArialMT';}
	.st5{font-size:33.3247px;}
</style>
<g id="Layer_1_1_">
	<circle class="st0" cx="100.03" cy="77.29" r="73.8"/>
	<path class="st0" d="M202.49-0.92"/>
</g>
<g id="Layer_2_1_">
	<path class="st1" d="M39.85,34.57c0.08,0.11,3.06-1.94,5.53-3.65h1.68v2.96l-2.86,3.16l-0.1,1.68c0,0,0,2.66-0.64,3.26
		c-0.74,0.68-1.54,1.06-3.6,2.86c-0.06,0.05-0.11,0.1-0.14,0.12c1.24-0.04,2.5-0.08,3.74-0.12l3.6-2.86l1.43,2.12l0.84,4.19
		c-2.89,6.72-4.75,11.03-4.75,11.03s2.71,1.76,7.9,5.13l10.26-1.58l2.36,4.34h8.68c-1.22,0.15-8.88,1.23-13.81,8.28
		c-4.65,6.65-3.47,13.71-3.22,14.99c1.34,2.36,2.68,4.74,4.02,7.1c1.18,2.1,2.36,4.21,3.56,6.31l6.31,3.95l9.48,2.36h5.92l3.95,5.13
		c0,0,0,1.18,0,4.34c0,3.16-1.97,8.68,0,11.45c1.97,2.77,11.84,16.18,11.84,16.18h5.92l-3.56-5.53l-1.97-12.23l1.58-6.71
		c0,0,2.76-5.13,3.95-7.5c1.19-2.36,7.1-11.84,7.1-11.84V98.4v-9.27v-6.52v-5.32c0,0,1.97-6.11,0-6.11s-1.97-1.58-5.53-2.76
		c-3.56-1.18-6.31-1.97-6.31-1.97l-4.69-0.39l-5.97,1.18l-2.76-3.16l-6.31-1.18l-2.76,1.97l-6.71-1.18l-3.95-1.18l-3.95-2.76
		l-4.34-3.16l-8.28,0.39l5.53-6.31c0,0,3.16-1.97,4.34-2.36s11.05-1.58,11.05-1.58l5.53-3.56l3.16-5.53l1.97-6.71h2.36l5.13-5.13
		h7.7l3.35,3.95c-2.76-3.14-5.53-6.3-8.28-9.44c-0.26-2.11-0.53-4.23-0.8-6.34l-6.71-1.58l-1.58,3.56l-2.36,2.36l-3.95,2.36
		l-3.95-3.56l1.94-1.97l3.98-2.76l4.34-3.56h8.28h10.26h5.92c0,0,5.31,1.58,5.22,1.97s4.65,2.36,4.65,2.36l7.5,2.76l2.36,1.97v2.76
		l-2.76,2.36c0,0,3.16,2.36,2.76,2.76c-0.39,0.39,3.95,1.58,3.95,1.58l1.97-1.97l3.16-2.76l7.5,1.18v3.56c0,0,3.16,1.97,0,3.16
		c-3.16,1.18-10.66,3.16-10.66,3.16s2.36-2.76-2.76,0.39s-6.31,2.36-8.68,5.13c-2.36,2.76-3.95,3.16-3.95,5.13
		c0,1.97,5.53,7.89,5.53,7.89s0.79,3.95,0.79,5.92s-1.97,9.87-0.79,11.45c1.18,1.58,2.36,0.11,3.95,3.61
		c1.59,3.49,2.76,5.08,5.13,7.05c2.36,1.97,2.36,3.16,5.92,3.95c3.56,0.79,9.07,1.18,9.07,1.18l5.13-1.97l5.53-3.16
		c0,0,0.39,1.58,0,3.56c-0.39,1.97,0.18,5.92,0.18,5.92l-2.15,5.13c0,0,1.18,1.97,0,3.95c-1.18,1.97-1.18,1.58-3.95,6.31
		c-2.76,4.74-4.74,6.31-4.74,8.68c0,2.36-0.39,6.71-0.39,6.71l0.39,5.13l9.27-4.81c3.51-4.85,16.08-23.43,13.97-49.54
		c-0.47-5.84-2.74-25.19-17.91-42.46C138.68,9.44,112.12,0.34,89.58,4.25C61.39,9.11,39.63,34.25,39.85,34.57z"/>
</g>
<g id="Layer_3">
	<rect x="81.88" y="77.29" class="st2" width="20.35" height="30.93"/>
	<text transform="matrix(1 0 0 1 81.8784 100.9436)" class="st3 st4 st5">$</text>
	<rect x="58.45" y="18.29" class="st2" width="26.64" height="27.62"/>
	<text transform="matrix(1 0 0 1 58.4531 41.9456)" class="st3 st4 st5">€</text>
	<rect x="146.37" y="55.74" class="st2" width="18.21" height="26.83"/>
	<text transform="matrix(1 0 0 1 146.3671 79.4002)" class="st3 st4 st5">¢</text>
</g>
</svg>
