<?xml version="1.0" encoding="utf-8"?>
<!-- Generator: Adobe Illustrator 25.2.0, SVG Export Plug-In . SVG Version: 6.00 Build 0)  -->
<svg version="1.1" id="Layer_1" xmlns="http://www.w3.org/2000/svg" xmlns:xlink="http://www.w3.org/1999/xlink" x="0px" y="0px"
	 viewBox="0 0 200 200" style="enable-background:new 0 0 200 200;" xml:space="preserve">
<style type="text/css">
	.st0{fill:#61A2CE;stroke:#00344A;stroke-miterlimit:10;}
	.st1{fill:#BE1E2D;stroke:#BE1E2D;stroke-miterlimit:10;}
	.st2{fill:#FFFFFF;stroke:#FFFFFF;stroke-width:0.5;stroke-miterlimit:10;}
	.st3{fill:none;}
	.st4{fill:#007378;}
	.st5{font-family:'ArialMT';}
	.st6{font-size:33.3247px;}
</style>
<g id="Layer_1_1_">
	<circle class="st0" cx="100" cy="77.3" r="73.8"/>
	<path class="st1" d="M202.5-0.9"/>
</g>
<g id="Layer_2_1_">
	<path class="st2" d="M39.8,34.6c0.1,0.1,3.1-1.9,5.5-3.6h1.7v3L44.2,37l-0.1,1.7c0,0,0,2.7-0.6,3.3c-0.7,0.7-1.5,1.1-3.6,2.9
		c-0.1,0-0.1,0.1-0.1,0.1c1.2,0,2.5-0.1,3.7-0.1l3.6-2.9l1.4,2.1l0.8,4.2c-2.9,6.7-4.8,11-4.8,11s2.7,1.8,7.9,5.1l10.3-1.6l2.4,4.3
		h8.7c-1.2,0.2-8.9,1.2-13.8,8.3c-4.7,6.7-3.5,13.7-3.2,15c1.3,2.4,2.7,4.7,4,7.1c1.2,2.1,2.4,4.2,3.6,6.3l6.3,3.9l9.5,2.4H86
		l3.9,5.1c0,0,0,1.2,0,4.3s-2,8.7,0,11.4s11.8,16.2,11.8,16.2h5.9l-3.6-5.5l-2-12.2l1.6-6.7c0,0,2.8-5.1,3.9-7.5
		c1.2-2.4,7.1-11.8,7.1-11.8v-5.1v-9.3v-6.5v-5.3c0,0,2-6.1,0-6.1s-2-1.6-5.5-2.8s-6.3-2-6.3-2l-4.7-0.4l-6,1.2l-2.8-3.2l-6.3-1.2
		l-2.8,2l-6.7-1.2l-3.9-1.2l-3.9-2.8l-4.3-3.2L53.3,57l5.5-6.3c0,0,3.2-2,4.3-2.4s11.1-1.6,11.1-1.6l5.5-3.6l3.2-5.5l2-6.7h2.4
		l5.1-5.1h7.7l3.3,4c-2.8-3.1-5.5-6.3-8.3-9.4c-0.3-2.1-0.5-4.2-0.8-6.3l-6.7-1.6L86,16l-2.4,2.4l-3.9,2.4l-3.9-3.6l1.9-2l4-2.8
		L86,8.8h8.3h10.3h5.9c0,0,5.3,1.6,5.2,2s4.7,2.4,4.7,2.4l7.5,2.8l2.4,2v2.8l-2.8,2.4c0,0,3.2,2.4,2.8,2.8c-0.4,0.4,3.9,1.6,3.9,1.6
		l2-2l3.2-2.8l7.5,1.2v3.6c0,0,3.2,2,0,3.2c-3.2,1.2-10.7,3.2-10.7,3.2s2.4-2.8-2.8,0.4s-6.3,2.4-8.7,5.1c-2.4,2.8-3.9,3.2-3.9,5.1
		s5.5,7.9,5.5,7.9s0.8,4,0.8,5.9s-2,9.9-0.8,11.4c1.2,1.6,2.4,0.1,4,3.6c1.6,3.5,2.8,5.1,5.1,7.1c2.4,2,2.4,3.2,5.9,3.9
		c3.6,0.8,9.1,1.2,9.1,1.2l5.1-2l5.5-3.2c0,0,0.4,1.6,0,3.6c-0.4,2,0.2,5.9,0.2,5.9l-2.1,5.1c0,0,1.2,2,0,3.9
		c-1.2,2-1.2,1.6-3.9,6.3c-2.8,4.7-4.7,6.3-4.7,8.7c0,2.4-0.4,6.7-0.4,6.7l0.4,5.1l9.3-4.8c3.5-4.8,16.1-23.4,14-49.5
		c-0.5-5.8-2.7-25.2-17.9-42.5c-17-19.4-43.6-28.5-66.1-24.6C61.4,9.1,39.6,34.2,39.8,34.6z"/>
</g>
<g id="Layer_3">
	<rect x="81.9" y="77.3" class="st3" width="20.3" height="30.9"/>
	<text transform="matrix(1 0 0 1 78.1846 102.3586)" class="st4 st5 st6">$</text>
	<rect x="58.5" y="18.3" class="st3" width="26.6" height="27.6"/>
	<text transform="matrix(1 0 0 1 58.4531 41.9456)" class="st4 st5 st6">€</text>
	<rect x="146.4" y="55.7" class="st3" width="18.2" height="26.8"/>
	<text transform="matrix(1 0 0 1 141.6189 64.4449)" class="st4 st5 st6">¢</text>
</g>
</svg>
