<?xml version="1.0" encoding="utf-8"?>
<!-- Generator: Adobe Illustrator 25.2.0, SVG Export Plug-In . SVG Version: 6.00 Build 0)  -->
<svg version="1.1" id="Layer_1" xmlns="http://www.w3.org/2000/svg" xmlns:xlink="http://www.w3.org/1999/xlink" x="0px" y="0px"
	 viewBox="0 0 200 125" style="enable-background:new 0 0 200 125;" xml:space="preserve">
<style type="text/css">
	.st0{fill:none;stroke:#A62B2A;stroke-miterlimit:10;}
	.st1{fill:#A62B2A;stroke:#A62B2A;stroke-width:0.5;stroke-miterlimit:10;}
	.st2{fill:#FFFFFF;}
	.st3{fill:#A62B2A;}
</style>
<g id="Layer_1_1_">
	<path class="st0" d="M177.87,91.2H21.46c-1.93,0-3.49-1.53-3.49-3.42V4.27c0-1.89,1.56-3.42,3.49-3.42h156.41
		c1.93,0,3.49,1.53,3.49,3.42v83.52C181.36,89.68,179.8,91.2,177.87,91.2z"/>
</g>
<g id="Layer_2_1_">
	<path class="st1" d="M17.81,95.16h163.38l13.85,17.4c1.38,1.74,0.11,4.28-2.14,4.27L6.19,116.06c-2.27-0.01-3.51-2.58-2.09-4.31
		L17.81,95.16z"/>
	<path class="st2" d="M41.85,99.02h3.1l0.26,0.99c0.03,0.1,0,0.24-0.04,0.24l-3.54-0.04c-0.04,0-0.07-0.15-0.04-0.24L41.85,99.02z"
		/>
	<path class="st2" d="M60.38,99.08h3.1l0.26,0.99c0.03,0.1,0,0.24-0.04,0.24l-3.54-0.04c-0.04,0-0.07-0.15-0.04-0.24L60.38,99.08z"
		/>
	<path class="st2" d="M70.17,99.12h3.1l0.26,0.99c0.03,0.1,0,0.24-0.04,0.24l-3.54-0.04c-0.04,0-0.07-0.15-0.04-0.24L70.17,99.12z"
		/>
	<path class="st2" d="M65.16,99.12h3.1l0.26,0.99c0.03,0.1,0,0.24-0.04,0.24l-3.54-0.04c-0.04,0-0.07-0.15-0.04-0.24L65.16,99.12z"
		/>
	<path class="st2" d="M75.11,99.06h3.1l0.26,0.99c0.03,0.1,0,0.24-0.04,0.24l-3.54-0.04c-0.04,0-0.07-0.15-0.04-0.24L75.11,99.06z"
		/>
	<path class="st2" d="M88.28,99.12h3.1l0.26,0.99c0.03,0.1,0,0.24-0.04,0.24l-3.54-0.04c-0.04,0-0.07-0.15-0.04-0.24L88.28,99.12z"
		/>
	<path class="st2" d="M83.27,99.12h3.1l0.26,0.99c0.03,0.1,0,0.24-0.04,0.24l-3.54-0.04c-0.04,0-0.07-0.15-0.04-0.24L83.27,99.12z"
		/>
	<path class="st2" d="M93.6,99.21h3.1l0.26,0.99c0.03,0.1,0,0.24-0.04,0.24l-3.54-0.04c-0.04,0-0.07-0.15-0.04-0.24L93.6,99.21z"/>
	<path class="st2" d="M103.39,99.25h3.1l0.26,0.99c0.03,0.1,0,0.24-0.04,0.24l-3.54-0.04c-0.04,0-0.07-0.15-0.04-0.24L103.39,99.25z
		"/>
	<path class="st2" d="M98.38,99.25h3.1l0.26,0.99c0.03,0.1,0,0.24-0.04,0.24l-3.54-0.04c-0.04,0-0.07-0.15-0.04-0.24L98.38,99.25z"
		/>
	<path class="st2" d="M129.81,99.25h3.1l0.26,0.99c0.03,0.1,0,0.24-0.04,0.24l-3.54-0.04c-0.04,0-0.07-0.15-0.04-0.24L129.81,99.25z
		"/>
	<path class="st2" d="M149.56,99.64h3.1l0.26,0.99c0.03,0.1,0,0.24-0.04,0.24l-3.54-0.04c-0.04,0-0.07-0.15-0.04-0.24L149.56,99.64z
		"/>
	<path class="st2" d="M144.54,99.64h3.1l0.26,0.99c0.03,0.1,0,0.24-0.04,0.24l-3.54-0.04c-0.04,0-0.07-0.15-0.04-0.24L144.54,99.64z
		"/>
	<path class="st2" d="M114.63,99.23h3.1l0.26,0.99c0.03,0.1,0,0.24-0.04,0.24l-3.54-0.04c-0.04,0-0.07-0.15-0.04-0.24L114.63,99.23z
		"/>
	<path class="st2" d="M124.42,99.27h3.1l0.26,0.99c0.03,0.1,0,0.24-0.04,0.24l-3.54-0.04c-0.04,0-0.07-0.15-0.04-0.24L124.42,99.27z
		"/>
	<path class="st2" d="M119.41,99.27h3.1l0.26,0.99c0.03,0.1,0,0.24-0.04,0.24l-3.54-0.04c-0.04,0-0.07-0.15-0.04-0.24L119.41,99.27z
		"/>
	<path class="st2" d="M49.1,104.45h3.1l0.26,0.99c0.03,0.1,0,0.24-0.04,0.24l-3.54-0.04c-0.04,0-0.07-0.15-0.04-0.24L49.1,104.45z"
		/>
	<path class="st2" d="M58.9,104.49H62l0.26,0.99c0.03,0.1,0,0.24-0.04,0.24l-3.54-0.04c-0.04,0-0.07-0.15-0.04-0.24L58.9,104.49z"/>
	<path class="st2" d="M53.89,104.49h3.1l0.26,0.99c0.03,0.1,0,0.24-0.04,0.24l-3.54-0.04c-0.04,0-0.07-0.15-0.04-0.24L53.89,104.49z
		"/>
	<path class="st2" d="M63.83,104.41h3.1l0.26,0.99c0.03,0.1,0,0.24-0.04,0.24l-3.54-0.04c-0.04,0-0.07-0.15-0.04-0.24L63.83,104.41z
		"/>
	<path class="st2" d="M73.62,104.44h3.1l0.26,0.99c0.03,0.1,0,0.24-0.04,0.24l-3.54-0.04c-0.04,0-0.07-0.15-0.04-0.24L73.62,104.44z
		"/>
	<path class="st2" d="M68.61,104.44h3.1l0.26,0.99c0.03,0.1,0,0.24-0.04,0.24l-3.54-0.04c-0.04,0-0.07-0.15-0.04-0.24L68.61,104.44z
		"/>
	<path class="st2" d="M79.25,104.47h3.1l0.26,0.99c0.03,0.1,0,0.24-0.04,0.24l-3.54-0.04c-0.04,0-0.07-0.15-0.04-0.24L79.25,104.47z
		"/>
	<path class="st2" d="M89.04,104.5h3.1l0.26,0.99c0.03,0.1,0,0.24-0.04,0.24l-3.54-0.04c-0.04,0-0.07-0.15-0.04-0.24L89.04,104.5z"
		/>
	<path class="st2" d="M84.03,104.5h3.1l0.26,0.99c0.03,0.1,0,0.24-0.04,0.24l-3.54-0.04c-0.04,0-0.07-0.15-0.04-0.24L84.03,104.5z"
		/>
	<path class="st2" d="M93.75,104.5h3.1l0.26,0.99c0.03,0.1,0,0.24-0.04,0.24l-3.54-0.04c-0.04,0-0.07-0.15-0.04-0.24L93.75,104.5z"
		/>
	<path class="st2" d="M103.54,104.54h3.1l0.26,0.99c0.03,0.1,0,0.24-0.04,0.24l-3.54-0.04c-0.04,0-0.07-0.15-0.04-0.24
		L103.54,104.54z"/>
	<path class="st2" d="M98.53,104.54h3.1l0.26,0.99c0.03,0.1,0,0.24-0.04,0.24l-3.54-0.04c-0.04,0-0.07-0.15-0.04-0.24L98.53,104.54z
		"/>
	<path class="st2" d="M108.47,104.47h3.1l0.26,0.99c0.03,0.1,0,0.24-0.04,0.24l-3.54-0.04c-0.04,0-0.07-0.15-0.04-0.24
		L108.47,104.47z"/>
	<path class="st2" d="M118.27,104.5h3.1l0.26,0.99c0.03,0.1,0,0.24-0.04,0.24l-3.54-0.04c-0.04,0-0.07-0.15-0.04-0.24L118.27,104.5z
		"/>
	<path class="st2" d="M113.25,104.5h3.1l0.26,0.99c0.03,0.1,0,0.24-0.04,0.24l-3.54-0.04c-0.04,0-0.07-0.15-0.04-0.24L113.25,104.5z
		"/>
	<path class="st2" d="M123.89,104.52h3.1l0.26,0.99c0.03,0.1,0,0.24-0.04,0.24l-3.54-0.04c-0.04,0-0.07-0.15-0.04-0.24
		L123.89,104.52z"/>
	<path class="st2" d="M133.68,104.56h3.1l0.26,0.99c0.03,0.1,0,0.24-0.04,0.24l-3.54-0.04c-0.04,0-0.07-0.15-0.04-0.24
		L133.68,104.56z"/>
	<path class="st2" d="M128.67,104.56h3.1l0.26,0.99c0.03,0.1,0,0.24-0.04,0.24l-3.54-0.04c-0.04,0-0.07-0.15-0.04-0.24
		L128.67,104.56z"/>
	<path class="st2" d="M46.75,105.88h3.1l0.26,0.99c0.03,0.1,0,0.24-0.04,0.24l-3.54-0.04c-0.04,0-0.07-0.15-0.04-0.24L46.75,105.88z
		"/>
	<path class="st2" d="M56.54,105.91h3.1l0.26,0.99c0.03,0.1,0,0.24-0.04,0.24l-3.54-0.04c-0.04,0-0.07-0.15-0.04-0.24L56.54,105.91z
		"/>
	<path class="st2" d="M51.53,105.91h3.1l0.26,0.99c0.03,0.1,0,0.24-0.04,0.24l-3.54-0.04c-0.04,0-0.07-0.15-0.04-0.24L51.53,105.91z
		"/>
	<path class="st2" d="M61.47,105.84h3.1l0.26,0.99c0.03,0.1,0,0.24-0.04,0.24l-3.54-0.04c-0.04,0-0.07-0.15-0.04-0.24L61.47,105.84z
		"/>
	<path class="st2" d="M71.27,105.87h3.1l0.26,0.99c0.03,0.1,0,0.24-0.04,0.24l-3.54-0.04c-0.04,0-0.07-0.15-0.04-0.24L71.27,105.87z
		"/>
	<path class="st2" d="M66.26,105.87h3.1l0.26,0.99c0.03,0.1,0,0.24-0.04,0.24l-3.54-0.04c-0.04,0-0.07-0.15-0.04-0.24L66.26,105.87z
		"/>
	<path class="st2" d="M76.89,105.89h3.1l0.26,0.99c0.03,0.1,0,0.24-0.04,0.24l-3.54-0.04c-0.04,0-0.07-0.15-0.04-0.24L76.89,105.89z
		"/>
	<path class="st2" d="M86.69,105.93h3.1l0.26,0.99c0.03,0.1,0,0.24-0.04,0.24l-3.54-0.04c-0.04,0-0.07-0.15-0.04-0.24L86.69,105.93z
		"/>
	<path class="st2" d="M81.68,105.93h3.1l0.26,0.99c0.03,0.1,0,0.24-0.04,0.24l-3.54-0.04c-0.04,0-0.07-0.15-0.04-0.24L81.68,105.93z
		"/>
	<path class="st2" d="M91.39,105.93h3.1l0.26,0.99c0.03,0.1,0,0.24-0.04,0.24l-3.54-0.04c-0.04,0-0.07-0.15-0.04-0.24L91.39,105.93z
		"/>
	<path class="st2" d="M101.19,105.97h3.1l0.26,0.99c0.03,0.1,0,0.24-0.04,0.24l-3.54-0.04c-0.04,0-0.07-0.15-0.04-0.24
		L101.19,105.97z"/>
	<path class="st2" d="M96.18,105.97h3.1l0.26,0.99c0.03,0.1,0,0.24-0.04,0.24l-3.54-0.04c-0.04,0-0.07-0.15-0.04-0.24L96.18,105.97z
		"/>
	<path class="st2" d="M106.12,105.89h3.1l0.26,0.99c0.03,0.1,0,0.24-0.04,0.24l-3.54-0.04c-0.04,0-0.07-0.15-0.04-0.24
		L106.12,105.89z"/>
	<path class="st2" d="M115.91,105.93h3.1l0.26,0.99c0.03,0.1,0,0.24-0.04,0.24l-3.54-0.04c-0.04,0-0.07-0.15-0.04-0.24
		L115.91,105.93z"/>
	<path class="st2" d="M110.9,105.93h3.1l0.26,0.99c0.03,0.1,0,0.24-0.04,0.24l-3.54-0.04c-0.04,0-0.07-0.15-0.04-0.24L110.9,105.93z
		"/>
	<path class="st2" d="M121.54,105.95h3.1l0.26,0.99c0.03,0.1,0,0.24-0.04,0.24l-3.54-0.04c-0.04,0-0.07-0.15-0.04-0.24
		L121.54,105.95z"/>
	<path class="st2" d="M131.33,105.99h3.1l0.26,0.99c0.03,0.1,0,0.24-0.04,0.24l-3.54-0.04c-0.04,0-0.07-0.15-0.04-0.24
		L131.33,105.99z"/>
	<path class="st2" d="M126.32,105.99h3.1l0.26,0.99c0.03,0.1,0,0.24-0.04,0.24l-3.54-0.04c-0.04,0-0.07-0.15-0.04-0.24
		L126.32,105.99z"/>
	<path class="st2" d="M48.57,107.5h3.1l0.26,0.99c0.03,0.1,0,0.24-0.04,0.24l-3.54-0.04c-0.04,0-0.07-0.15-0.04-0.24L48.57,107.5z"
		/>
	<path class="st2" d="M58.37,107.54h3.1l0.26,0.99c0.03,0.1,0,0.24-0.04,0.24l-3.54-0.04c-0.04,0-0.07-0.15-0.04-0.24L58.37,107.54z
		"/>
	<path class="st2" d="M53.35,107.54h3.1l0.26,0.99c0.03,0.1,0,0.24-0.04,0.24l-3.54-0.04c-0.04,0-0.07-0.15-0.04-0.24L53.35,107.54z
		"/>
	<path class="st2" d="M63.29,107.46h3.1l0.26,0.99c0.03,0.1,0,0.24-0.04,0.24l-3.54-0.04c-0.04,0-0.07-0.15-0.04-0.24L63.29,107.46z
		"/>
	<path class="st2" d="M73.09,107.5h3.1l0.26,0.99c0.03,0.1,0,0.24-0.04,0.24l-3.54-0.04c-0.04,0-0.07-0.15-0.04-0.24L73.09,107.5z"
		/>
	<path class="st2" d="M68.08,107.5h3.1l0.26,0.98c0.03,0.1,0,0.24-0.04,0.24l-3.54-0.04c-0.04,0-0.07-0.15-0.04-0.24L68.08,107.5z"
		/>
	<path class="st2" d="M78.71,107.52h3.1l0.26,0.99c0.03,0.1,0,0.24-0.04,0.24l-3.54-0.04c-0.04,0-0.07-0.15-0.04-0.24L78.71,107.52z
		"/>
	<path class="st2" d="M88.51,107.56h3.1l0.26,0.99c0.03,0.1,0,0.24-0.04,0.24l-3.54-0.04c-0.04,0-0.07-0.15-0.04-0.24L88.51,107.56z
		"/>
	<path class="st2" d="M83.5,107.56h3.1l0.26,0.99c0.03,0.1,0,0.24-0.04,0.24l-3.54-0.04c-0.04,0-0.07-0.15-0.04-0.24L83.5,107.56z"
		/>
	<path class="st2" d="M93.22,107.56h3.1l0.26,0.99c0.03,0.1,0,0.24-0.04,0.24L93,108.75c-0.04,0-0.07-0.15-0.04-0.24L93.22,107.56z"
		/>
	<path class="st2" d="M103.01,107.6h3.1l0.26,0.99c0.03,0.1,0,0.24-0.04,0.24l-3.54-0.04c-0.04,0-0.07-0.15-0.04-0.24L103.01,107.6z
		"/>
	<path class="st2" d="M98,107.6h3.1l0.26,0.99c0.03,0.1,0,0.24-0.04,0.24l-3.54-0.04c-0.04,0-0.07-0.15-0.04-0.24L98,107.6z"/>
	<path class="st2" d="M107.94,107.52h3.1l0.26,0.99c0.03,0.1,0,0.24-0.04,0.24l-3.54-0.04c-0.04,0-0.07-0.15-0.04-0.24
		L107.94,107.52z"/>
	<path class="st2" d="M117.73,107.56h3.1l0.26,0.99c0.03,0.1,0,0.24-0.04,0.24l-3.54-0.04c-0.04,0-0.07-0.15-0.04-0.24
		L117.73,107.56z"/>
	<path class="st2" d="M112.72,107.56h3.1l0.26,0.99c0.03,0.1,0,0.24-0.04,0.24l-3.54-0.04c-0.04,0-0.07-0.15-0.04-0.24
		L112.72,107.56z"/>
	<path class="st2" d="M123.36,107.58h3.1l0.26,0.99c0.03,0.1,0,0.24-0.04,0.24l-3.54-0.04c-0.04,0-0.07-0.15-0.04-0.24
		L123.36,107.58z"/>
	<path class="st2" d="M133.15,107.62h3.1l0.26,0.99c0.03,0.1,0,0.24-0.04,0.24l-3.54-0.04c-0.04,0-0.07-0.15-0.04-0.24
		L133.15,107.62z"/>
	<path class="st2" d="M128.14,107.62h3.1l0.26,0.99c0.03,0.1,0,0.24-0.04,0.24l-3.54-0.04c-0.04,0-0.07-0.15-0.04-0.24
		L128.14,107.62z"/>
	<path class="st2" d="M81.64,111.04h32.16l2.73,3.46c0.27,0.34,0.02,0.85-0.42,0.85l-36.75-0.16c-0.45,0-0.69-0.52-0.41-0.86
		L81.64,111.04z"/>
	<polyline class="st2" points="3.65,118.79 195.78,118.79 195.78,120.83 3.65,120.83 3.65,117.86 	"/>
	<path class="st3" d="M6,120.44h188.88c0.89,0,1.62,0.71,1.62,1.59l0,0c0,0.87-0.73,1.59-1.62,1.59H6c-0.89,0-1.62-0.71-1.62-1.59
		l0,0C4.38,121.14,5.1,120.44,6,120.44z"/>
</g>
</svg>
