<?xml version="1.0" encoding="utf-8"?>
<!-- Generator: Adobe Illustrator 25.2.0, SVG Export Plug-In . SVG Version: 6.00 Build 0)  -->
<svg version="1.1" id="Layer_1" xmlns="http://www.w3.org/2000/svg" xmlns:xlink="http://www.w3.org/1999/xlink" x="0px" y="0px"
	 viewBox="0 0 200 125" style="enable-background:new 0 0 200 125;" xml:space="preserve">
<style type="text/css">
	.st0{fill:none;stroke:#A62B2A;stroke-miterlimit:10;}
	.st1{fill:#454545;stroke:#A62B2A;stroke-width:0.5;stroke-miterlimit:10;}
	.st2{fill:#FFFFFF;}
	.st3{fill:#A62B2A;}
</style>
<g id="Layer_1_1_">
	<path class="st0" d="M177.9,91.2H21.5c-1.9,0-3.5-1.5-3.5-3.4V4.3c0-1.9,1.6-3.4,3.5-3.4h156.4c1.9,0,3.5,1.5,3.5,3.4v83.5
		C181.4,89.7,179.8,91.2,177.9,91.2z"/>
</g>
<g id="Layer_2_1_">
	<path class="st1" d="M17.8,95.2h163.4l13.9,17.4c1.4,1.7,0.1,4.3-2.1,4.3L6.2,116.1c-2.3,0-3.5-2.6-2.1-4.3L17.8,95.2z"/>
	<path class="st2" d="M41.8,99h3.1l0.3,1c0,0.1,0,0.2,0,0.2l-3.5,0c0,0-0.1-0.2,0-0.2L41.8,99z"/>
	<path class="st2" d="M60.4,99.1h3.1l0.3,1c0,0.1,0,0.2,0,0.2l-3.5,0c0,0-0.1-0.2,0-0.2L60.4,99.1z"/>
	<path class="st2" d="M70.2,99.1h3.1l0.3,1c0,0.1,0,0.2,0,0.2l-3.5,0c0,0-0.1-0.2,0-0.2L70.2,99.1z"/>
	<path class="st2" d="M65.2,99.1h3.1l0.3,1c0,0.1,0,0.2,0,0.2l-3.5,0c0,0-0.1-0.2,0-0.2L65.2,99.1z"/>
	<path class="st2" d="M75.1,99.1h3.1l0.3,1c0,0.1,0,0.2,0,0.2l-3.5,0c0,0-0.1-0.2,0-0.2L75.1,99.1z"/>
	<path class="st2" d="M88.3,99.1h3.1l0.3,1c0,0.1,0,0.2,0,0.2l-3.5,0c0,0-0.1-0.2,0-0.2L88.3,99.1z"/>
	<path class="st2" d="M83.3,99.1h3.1l0.3,1c0,0.1,0,0.2,0,0.2l-3.5,0c0,0-0.1-0.2,0-0.2L83.3,99.1z"/>
	<path class="st2" d="M93.6,99.2h3.1l0.3,1c0,0.1,0,0.2,0,0.2l-3.5,0c0,0-0.1-0.2,0-0.2L93.6,99.2z"/>
	<path class="st2" d="M103.4,99.2h3.1l0.3,1c0,0.1,0,0.2,0,0.2l-3.5,0c0,0-0.1-0.2,0-0.2L103.4,99.2z"/>
	<path class="st2" d="M98.4,99.2h3.1l0.3,1c0,0.1,0,0.2,0,0.2l-3.5,0c0,0-0.1-0.2,0-0.2L98.4,99.2z"/>
	<path class="st2" d="M129.8,99.2h3.1l0.3,1c0,0.1,0,0.2,0,0.2l-3.5,0c0,0-0.1-0.2,0-0.2L129.8,99.2z"/>
	<path class="st2" d="M149.6,99.6h3.1l0.3,1c0,0.1,0,0.2,0,0.2l-3.5,0c0,0-0.1-0.2,0-0.2L149.6,99.6z"/>
	<path class="st2" d="M144.5,99.6h3.1l0.3,1c0,0.1,0,0.2,0,0.2l-3.5,0c0,0-0.1-0.2,0-0.2L144.5,99.6z"/>
	<path class="st2" d="M114.6,99.2h3.1l0.3,1c0,0.1,0,0.2,0,0.2l-3.5,0c0,0-0.1-0.2,0-0.2L114.6,99.2z"/>
	<path class="st2" d="M124.4,99.3h3.1l0.3,1c0,0.1,0,0.2,0,0.2l-3.5,0c0,0-0.1-0.2,0-0.2L124.4,99.3z"/>
	<path class="st2" d="M119.4,99.3h3.1l0.3,1c0,0.1,0,0.2,0,0.2l-3.5,0c0,0-0.1-0.2,0-0.2L119.4,99.3z"/>
	<path class="st2" d="M49.1,104.4h3.1l0.3,1c0,0.1,0,0.2,0,0.2l-3.5,0c0,0-0.1-0.2,0-0.2L49.1,104.4z"/>
	<path class="st2" d="M58.9,104.5H62l0.3,1c0,0.1,0,0.2,0,0.2l-3.5,0c0,0-0.1-0.2,0-0.2L58.9,104.5z"/>
	<path class="st2" d="M53.9,104.5H57l0.3,1c0,0.1,0,0.2,0,0.2l-3.5,0c0,0-0.1-0.2,0-0.2L53.9,104.5z"/>
	<path class="st2" d="M63.8,104.4h3.1l0.3,1c0,0.1,0,0.2,0,0.2l-3.5,0c0,0-0.1-0.2,0-0.2L63.8,104.4z"/>
	<path class="st2" d="M73.6,104.4h3.1l0.3,1c0,0.1,0,0.2,0,0.2l-3.5,0c0,0-0.1-0.2,0-0.2L73.6,104.4z"/>
	<path class="st2" d="M68.6,104.4h3.1l0.3,1c0,0.1,0,0.2,0,0.2l-3.5,0c0,0-0.1-0.2,0-0.2L68.6,104.4z"/>
	<path class="st2" d="M79.2,104.5h3.1l0.3,1c0,0.1,0,0.2,0,0.2l-3.5,0c0,0-0.1-0.2,0-0.2L79.2,104.5z"/>
	<path class="st2" d="M89,104.5h3.1l0.3,1c0,0.1,0,0.2,0,0.2l-3.5,0c0,0-0.1-0.2,0-0.2L89,104.5z"/>
	<path class="st2" d="M84,104.5h3.1l0.3,1c0,0.1,0,0.2,0,0.2l-3.5,0c0,0-0.1-0.2,0-0.2L84,104.5z"/>
	<path class="st2" d="M93.8,104.5h3.1l0.3,1c0,0.1,0,0.2,0,0.2l-3.5,0c0,0-0.1-0.2,0-0.2L93.8,104.5z"/>
	<path class="st2" d="M103.5,104.5h3.1l0.3,1c0,0.1,0,0.2,0,0.2l-3.5,0c0,0-0.1-0.2,0-0.2L103.5,104.5z"/>
	<path class="st2" d="M98.5,104.5h3.1l0.3,1c0,0.1,0,0.2,0,0.2l-3.5,0c0,0-0.1-0.2,0-0.2L98.5,104.5z"/>
	<path class="st2" d="M108.5,104.5h3.1l0.3,1c0,0.1,0,0.2,0,0.2l-3.5,0c0,0-0.1-0.2,0-0.2L108.5,104.5z"/>
	<path class="st2" d="M118.3,104.5h3.1l0.3,1c0,0.1,0,0.2,0,0.2l-3.5,0c0,0-0.1-0.2,0-0.2L118.3,104.5z"/>
	<path class="st2" d="M113.2,104.5h3.1l0.3,1c0,0.1,0,0.2,0,0.2l-3.5,0c0,0-0.1-0.2,0-0.2L113.2,104.5z"/>
	<path class="st2" d="M123.9,104.5h3.1l0.3,1c0,0.1,0,0.2,0,0.2l-3.5,0c0,0-0.1-0.2,0-0.2L123.9,104.5z"/>
	<path class="st2" d="M133.7,104.6h3.1l0.3,1c0,0.1,0,0.2,0,0.2l-3.5,0c0,0-0.1-0.2,0-0.2L133.7,104.6z"/>
	<path class="st2" d="M128.7,104.6h3.1l0.3,1c0,0.1,0,0.2,0,0.2l-3.5,0c0,0-0.1-0.2,0-0.2L128.7,104.6z"/>
	<path class="st2" d="M46.8,105.9h3.1l0.3,1c0,0.1,0,0.2,0,0.2l-3.5,0c0,0-0.1-0.2,0-0.2L46.8,105.9z"/>
	<path class="st2" d="M56.5,105.9h3.1l0.3,1c0,0.1,0,0.2,0,0.2l-3.5,0c0,0-0.1-0.2,0-0.2L56.5,105.9z"/>
	<path class="st2" d="M51.5,105.9h3.1l0.3,1c0,0.1,0,0.2,0,0.2l-3.5,0c0,0-0.1-0.2,0-0.2L51.5,105.9z"/>
	<path class="st2" d="M61.5,105.8h3.1l0.3,1c0,0.1,0,0.2,0,0.2l-3.5,0c0,0-0.1-0.2,0-0.2L61.5,105.8z"/>
	<path class="st2" d="M71.3,105.9h3.1l0.3,1c0,0.1,0,0.2,0,0.2l-3.5,0c0,0-0.1-0.2,0-0.2L71.3,105.9z"/>
	<path class="st2" d="M66.3,105.9h3.1l0.3,1c0,0.1,0,0.2,0,0.2l-3.5,0c0,0-0.1-0.2,0-0.2L66.3,105.9z"/>
	<path class="st2" d="M76.9,105.9H80l0.3,1c0,0.1,0,0.2,0,0.2l-3.5,0c0,0-0.1-0.2,0-0.2L76.9,105.9z"/>
	<path class="st2" d="M86.7,105.9h3.1l0.3,1c0,0.1,0,0.2,0,0.2l-3.5,0c0,0-0.1-0.2,0-0.2L86.7,105.9z"/>
	<path class="st2" d="M81.7,105.9h3.1l0.3,1c0,0.1,0,0.2,0,0.2l-3.5,0c0,0-0.1-0.2,0-0.2L81.7,105.9z"/>
	<path class="st2" d="M91.4,105.9h3.1l0.3,1c0,0.1,0,0.2,0,0.2l-3.5,0c0,0-0.1-0.2,0-0.2L91.4,105.9z"/>
	<path class="st2" d="M101.2,106h3.1l0.3,1c0,0.1,0,0.2,0,0.2l-3.5,0c0,0-0.1-0.2,0-0.2L101.2,106z"/>
	<path class="st2" d="M96.2,106h3.1l0.3,1c0,0.1,0,0.2,0,0.2l-3.5,0c0,0-0.1-0.2,0-0.2L96.2,106z"/>
	<path class="st2" d="M106.1,105.9h3.1l0.3,1c0,0.1,0,0.2,0,0.2l-3.5,0c0,0-0.1-0.2,0-0.2L106.1,105.9z"/>
	<path class="st2" d="M115.9,105.9h3.1l0.3,1c0,0.1,0,0.2,0,0.2l-3.5,0c0,0-0.1-0.2,0-0.2L115.9,105.9z"/>
	<path class="st2" d="M110.9,105.9h3.1l0.3,1c0,0.1,0,0.2,0,0.2l-3.5,0c0,0-0.1-0.2,0-0.2L110.9,105.9z"/>
	<path class="st2" d="M121.5,105.9h3.1l0.3,1c0,0.1,0,0.2,0,0.2l-3.5,0c0,0-0.1-0.2,0-0.2L121.5,105.9z"/>
	<path class="st2" d="M131.3,106h3.1l0.3,1c0,0.1,0,0.2,0,0.2l-3.5,0c0,0-0.1-0.2,0-0.2L131.3,106z"/>
	<path class="st2" d="M126.3,106h3.1l0.3,1c0,0.1,0,0.2,0,0.2l-3.5,0c0,0-0.1-0.2,0-0.2L126.3,106z"/>
	<path class="st2" d="M48.6,107.5h3.1l0.3,1c0,0.1,0,0.2,0,0.2l-3.5,0c0,0-0.1-0.2,0-0.2L48.6,107.5z"/>
	<path class="st2" d="M58.4,107.5h3.1l0.3,1c0,0.1,0,0.2,0,0.2l-3.5,0c0,0-0.1-0.2,0-0.2L58.4,107.5z"/>
	<path class="st2" d="M53.3,107.5h3.1l0.3,1c0,0.1,0,0.2,0,0.2l-3.5,0c0,0-0.1-0.2,0-0.2L53.3,107.5z"/>
	<path class="st2" d="M63.3,107.5h3.1l0.3,1c0,0.1,0,0.2,0,0.2l-3.5,0c0,0-0.1-0.2,0-0.2L63.3,107.5z"/>
	<path class="st2" d="M73.1,107.5h3.1l0.3,1c0,0.1,0,0.2,0,0.2l-3.5,0c0,0-0.1-0.2,0-0.2L73.1,107.5z"/>
	<path class="st2" d="M68.1,107.5h3.1l0.3,1c0,0.1,0,0.2,0,0.2l-3.5,0c0,0-0.1-0.2,0-0.2L68.1,107.5z"/>
	<path class="st2" d="M78.7,107.5h3.1l0.3,1c0,0.1,0,0.2,0,0.2l-3.5,0c0,0-0.1-0.2,0-0.2L78.7,107.5z"/>
	<path class="st2" d="M88.5,107.6h3.1l0.3,1c0,0.1,0,0.2,0,0.2l-3.5,0c0,0-0.1-0.2,0-0.2L88.5,107.6z"/>
	<path class="st2" d="M83.5,107.6h3.1l0.3,1c0,0.1,0,0.2,0,0.2l-3.5,0c0,0-0.1-0.2,0-0.2L83.5,107.6z"/>
	<path class="st2" d="M93.2,107.6h3.1l0.3,1c0,0.1,0,0.2,0,0.2l-3.5,0c0,0-0.1-0.2,0-0.2L93.2,107.6z"/>
	<path class="st2" d="M103,107.6h3.1l0.3,1c0,0.1,0,0.2,0,0.2l-3.5,0c0,0-0.1-0.2,0-0.2L103,107.6z"/>
	<path class="st2" d="M98,107.6h3.1l0.3,1c0,0.1,0,0.2,0,0.2l-3.5,0c0,0-0.1-0.2,0-0.2L98,107.6z"/>
	<path class="st2" d="M107.9,107.5h3.1l0.3,1c0,0.1,0,0.2,0,0.2l-3.5,0c0,0-0.1-0.2,0-0.2L107.9,107.5z"/>
	<path class="st2" d="M117.7,107.6h3.1l0.3,1c0,0.1,0,0.2,0,0.2l-3.5,0c0,0-0.1-0.2,0-0.2L117.7,107.6z"/>
	<path class="st2" d="M112.7,107.6h3.1l0.3,1c0,0.1,0,0.2,0,0.2l-3.5,0c0,0-0.1-0.2,0-0.2L112.7,107.6z"/>
	<path class="st2" d="M123.4,107.6h3.1l0.3,1c0,0.1,0,0.2,0,0.2l-3.5,0c0,0-0.1-0.2,0-0.2L123.4,107.6z"/>
	<path class="st2" d="M133.1,107.6h3.1l0.3,1c0,0.1,0,0.2,0,0.2l-3.5,0c0,0-0.1-0.2,0-0.2L133.1,107.6z"/>
	<path class="st2" d="M128.1,107.6h3.1l0.3,1c0,0.1,0,0.2,0,0.2l-3.5,0c0,0-0.1-0.2,0-0.2L128.1,107.6z"/>
	<path class="st2" d="M81.6,111h32.2l2.7,3.5c0.3,0.3,0,0.8-0.4,0.8l-36.8-0.2c-0.4,0-0.7-0.5-0.4-0.9L81.6,111z"/>
	<polyline class="st2" points="3.7,118.8 195.8,118.8 195.8,120.8 3.7,120.8 3.7,117.9 	"/>
	<path class="st3" d="M6,120.4h188.9c0.9,0,1.6,0.7,1.6,1.6l0,0c0,0.9-0.7,1.6-1.6,1.6H6c-0.9,0-1.6-0.7-1.6-1.6l0,0
		C4.4,121.1,5.1,120.4,6,120.4z"/>
</g>
</svg>
