<?xml version="1.0" encoding="utf-8"?>
<!-- Generator: Adobe Illustrator 25.2.0, SVG Export Plug-In . SVG Version: 6.00 Build 0)  -->
<svg version="1.1" id="Layer_1" xmlns="http://www.w3.org/2000/svg" xmlns:xlink="http://www.w3.org/1999/xlink" x="0px" y="0px"
	 viewBox="0 0 200 200" style="enable-background:new 0 0 200 200;" xml:space="preserve">
<style type="text/css">
	.st0{fill:none;stroke:#E6E6E6;stroke-width:8;stroke-miterlimit:10;}
	.st1{fill:#E6E6E6;stroke:#E6E6E6;stroke-miterlimit:10;}
	.st2{fill:none;stroke:#E6E6E6;stroke-miterlimit:10;}
	.st3{fill:none;stroke:#E6E6E6;stroke-width:4;stroke-miterlimit:10;}
</style>
<g id="Layer_1_1_">
	<path class="st0" d="M175.7,100.8c0,43.9-8.6,79.5-19.2,79.5c-10.6,0-19.2-35.6-19.2-79.5c0-9.8,0.4-19.2,1.2-27.9
		c2.7-30.1,9.7-51.6,18-51.6C167.1,21.4,175.7,56.9,175.7,100.8z"/>
	<path class="st1" d="M50.1,85.3v40h-5.2v27.8h-3.5c-6.3,0-11.4-5.1-11.4-11.4v-16.4h-5.6c-5.8,0-10.6-5.4-10.6-12.1V97.4
		c0-6.7,4.7-12.1,10.6-12.1H50.1z"/>
	<line class="st2" x1="54.8" y1="125.3" x2="50.1" y2="125.3"/>
	<line class="st2" x1="52.3" y1="85.3" x2="50.1" y2="85.3"/>
	<path class="st1" d="M137.7,116.8h14.1c3.7,0,6.8-3.5,6.8-7.7v-7.5c0-4.3-3-7.7-6.8-7.7h-14.5"/>
	<polyline class="st3" points="46.5,88.9 48.6,87.6 146.5,27 149.9,24.9 155.2,21.6 	"/>
	<polyline class="st3" points="47.2,120.5 51.8,123 156.5,180.3 	"/>
	<line class="st3" x1="130.1" y1="47.7" x2="78.6" y2="78.1"/>
</g>
<g id="Layer_2_1_">
</g>
</svg>
