<?xml version="1.0" encoding="utf-8"?>
<!-- Generator: Adobe Illustrator 25.2.0, SVG Export Plug-In . SVG Version: 6.00 Build 0)  -->
<svg version="1.1" id="Layer_1" xmlns="http://www.w3.org/2000/svg" xmlns:xlink="http://www.w3.org/1999/xlink" x="0px" y="0px"
	 viewBox="0 0 200 200" style="enable-background:new 0 0 200 200;" xml:space="preserve">
<style type="text/css">
	.st0{fill:#F49D1A;stroke:#FFFFFF;stroke-width:0.5;stroke-miterlimit:10;}
	.st1{fill:#F49D1A;stroke:#FFFFFF;stroke-miterlimit:10;}
	.st2{fill:none;}
	.st3{fill:#BE1E2D;}
	.st4{font-family:'ArialMT';}
	.st5{font-size:85.5472px;}
	.st6{fill:#F49D1A;stroke:#FFFFFF;}
</style>
<g id="Layer_1_1_">
</g>
<g id="Layer_2_1_">
	<path class="st0" d="M188.9,66.8h-99c-2.2,0-4-1.8-4-4l0,0c0-2.2,1.8-4,4-4h99c2.2,0,4,1.8,4,4l0,0C192.9,65,191.1,66.8,188.9,66.8
		z"/>
	<path class="st0" d="M189.8,57.3h-99c-2.2,0-4-1.8-4-4l0,0c0-2.2,1.8-4,4-4h99c2.2,0,4,1.8,4,4l0,0C193.8,55.5,192,57.3,189.8,57.3
		z"/>
	<path class="st0" d="M188.9,76.2h-99c-2.2,0-4-1.8-4-4l0,0c0-2.2,1.8-4,4-4h99c2.2,0,4,1.8,4,4l0,0
		C192.9,74.5,191.1,76.2,188.9,76.2z"/>
	<path class="st0" d="M192.2,85.8h-99c-2.2,0-4-1.8-4-4l0,0c0-2.2,1.8-4,4-4h99c2.2,0,4,1.8,4,4l0,0
		C196.2,83.9,194.4,85.8,192.2,85.8z"/>
	<path class="st0" d="M182.1,104.7h-99c-2.2,0-4-1.8-4-4l0,0c0-2.2,1.8-4,4-4h99c2.2,0,4,1.8,4,4l0,0
		C186.1,102.9,184.3,104.7,182.1,104.7z"/>
	<path class="st0" d="M183,95.2H84c-2.2,0-4-1.8-4-4l0,0c0-2.2,1.8-4,4-4h99c2.2,0,4,1.8,4,4l0,0C187,93.4,185.2,95.2,183,95.2z"/>
	<path class="st0" d="M182.1,114.2h-99c-2.2,0-4-1.8-4-4l0,0c0-2.2,1.8-4,4-4h99c2.2,0,4,1.8,4,4l0,0
		C186.1,112.4,184.3,114.2,182.1,114.2z"/>
	<path class="st0" d="M186.5,133.2h-99c-2.2,0-4-1.8-4-4l0,0c0-2.2,1.8-4,4-4h99c2.2,0,4,1.8,4,4l0,0
		C190.5,131.4,188.7,133.2,186.5,133.2z"/>
	<path class="st0" d="M187.4,123.7h-99c-2.2,0-4-1.8-4-4l0,0c0-2.2,1.8-4,4-4h99c2.2,0,4,1.8,4,4l0,0
		C191.4,121.9,189.6,123.7,187.4,123.7z"/>
	<path class="st0" d="M186.5,142.7h-99c-2.2,0-4-1.8-4-4l0,0c0-2.2,1.8-4,4-4h99c2.2,0,4,1.8,4,4l0,0
		C190.5,140.9,188.7,142.7,186.5,142.7z"/>
	<ellipse class="st1" cx="57.1" cy="106.2" rx="53.3" ry="50.5"/>
	<rect x="35" y="74.8" class="st2" width="72.2" height="62.7"/>
	<text transform="matrix(1 0 0 1 34.9598 135.5812)" class="st3 st4 st5">$</text>
	<text transform="matrix(1 0 0 1 34.9598 135.5812)" class="st6 st4 st5">$</text>
</g>
</svg>
