<?xml version="1.0" encoding="utf-8"?>
<!-- Generator: Adobe Illustrator 25.2.0, SVG Export Plug-In . SVG Version: 6.00 Build 0)  -->
<svg version="1.1" xmlns="http://www.w3.org/2000/svg" xmlns:xlink="http://www.w3.org/1999/xlink" x="0px" y="0px"
	 viewBox="0 0 200 200" style="enable-background:new 0 0 200 200;" xml:space="preserve">
<style type="text/css">
	.st0{fill:#BE1E2D;stroke:#FFFFFF;stroke-width:0.5;stroke-miterlimit:10;}
	.st1{fill:#BE1E2D;stroke:#FFFFFF;stroke-miterlimit:10;}
	.st2{fill:none;}
	.st3{fill:#BE1E2D;stroke:#FFFFFF;}
	.st4{font-family:'MyriadPro-Regular';}
	.st5{font-size:85.5472px;}
</style>
<g id="Layer_1">
</g>
<g id="Layer_2">
	<path class="st0" d="M188.91,66.76H89.92c-2.22,0-4.01-1.8-4.01-4.01v0c0-2.22,1.8-4.01,4.01-4.01h98.99c2.22,0,4.01,1.8,4.01,4.01
		v0C192.93,64.96,191.13,66.76,188.91,66.76z"/>
	<path class="st0" d="M189.82,57.26H90.83c-2.22,0-4.01-1.8-4.01-4.01v0c0-2.22,1.8-4.01,4.01-4.01h98.99c2.22,0,4.01,1.8,4.01,4.01
		v0C193.83,55.47,192.04,57.26,189.82,57.26z"/>
	<path class="st0" d="M188.91,76.25H89.92c-2.22,0-4.01-1.8-4.01-4.01v0c0-2.22,1.8-4.01,4.01-4.01h98.99c2.22,0,4.01,1.8,4.01,4.01
		v0C192.93,74.46,191.13,76.25,188.91,76.25z"/>
	<path class="st0" d="M192.19,85.75H93.2c-2.22,0-4.01-1.8-4.01-4.01v0c0-2.22,1.8-4.01,4.01-4.01h98.99c2.22,0,4.01,1.8,4.01,4.01
		v0C196.21,83.95,194.41,85.75,192.19,85.75z"/>
	<path class="st0" d="M182.05,104.74H83.06c-2.22,0-4.01-1.8-4.01-4.01v0c0-2.22,1.8-4.01,4.01-4.01h98.99
		c2.22,0,4.01,1.8,4.01,4.01v0C186.06,102.94,184.27,104.74,182.05,104.74z"/>
	<path class="st0" d="M182.96,95.24H83.97c-2.22,0-4.01-1.8-4.01-4.01v0c0-2.22,1.8-4.01,4.01-4.01h98.99c2.22,0,4.01,1.8,4.01,4.01
		v0C186.97,93.45,185.17,95.24,182.96,95.24z"/>
	<path class="st0" d="M182.05,114.23H83.06c-2.22,0-4.01-1.8-4.01-4.01v0c0-2.22,1.8-4.01,4.01-4.01h98.99
		c2.22,0,4.01,1.8,4.01,4.01v0C186.06,112.44,184.27,114.23,182.05,114.23z"/>
	<path class="st0" d="M186.47,133.22H87.48c-2.22,0-4.01-1.8-4.01-4.01v0c0-2.22,1.8-4.01,4.01-4.01h98.99
		c2.22,0,4.01,1.8,4.01,4.01v0C190.48,131.43,188.68,133.22,186.47,133.22z"/>
	<path class="st0" d="M187.37,123.73H88.38c-2.22,0-4.01-1.8-4.01-4.01v0c0-2.22,1.8-4.01,4.01-4.01h98.99
		c2.22,0,4.01,1.8,4.01,4.01v0C191.39,121.93,189.59,123.73,187.37,123.73z"/>
	<path class="st0" d="M186.47,142.72H87.48c-2.22,0-4.01-1.8-4.01-4.01v0c0-2.22,1.8-4.01,4.01-4.01h98.99
		c2.22,0,4.01,1.8,4.01,4.01v0C190.48,140.92,188.68,142.72,186.47,142.72z"/>
	<ellipse class="st1" cx="57.06" cy="106.21" rx="53.27" ry="50.51"/>
	<rect x="34.96" y="74.84" class="st2" width="72.22" height="62.73"/>
	<text transform="matrix(1 0 0 1 34.9598 135.5812)" class="st3 st4 st5">$</text>
</g>
</svg>
