<?xml version="1.0" encoding="utf-8"?>
<!-- Generator: Adobe Illustrator 25.2.0, SVG Export Plug-In . SVG Version: 6.00 Build 0)  -->
<svg version="1.1" xmlns="http://www.w3.org/2000/svg" xmlns:xlink="http://www.w3.org/1999/xlink" x="0px" y="0px"
	 viewBox="0 0 200 200" style="enable-background:new 0 0 200 200;" xml:space="preserve">
<style type="text/css">
	.st0{fill:#E8E8E8;stroke:#EBEBEB;stroke-width:2;stroke-miterlimit:10;}
</style>
<g>
</g>
<g id="Layer_1">
	<path class="st0" d="M76.3,97.2c0.2,0.8,0.9,3.2-0.3,4.5c-1.6,1.7-5.4,0.1-5.7-0.1c-2-0.9-3-2.2-3.8-3.1c0,0-3.6-3.9-10.5-5.3
		c-8-1.7-14.7,4.9-15.5,3.8c-0.6-0.9,3.2-5.7,8.6-8.2c5.4-2.5,10.4-1.9,12.2-1.6c1.1,0.2,6,0.9,10.7,4.5
		C75.3,94.2,76.1,96.2,76.3,97.2z"/>
	<path class="st0" d="M96.3,109.1L96.3,109.1l-0.4-3.6l0-0.1c-1-6.4-3.5-12.4-7.4-17.5c-4.2-5.7-10-10.2-16.9-12.9
		c-1.9-0.8-4-1.4-6.1-1.8c-5.3-1.1-10.6-1.1-15.6-0.1c-5.7,1.2-11.1,3.6-15.7,7.1c-2.1,1.6-4.1,3.4-5.8,5.4
		c-4.2,4.8-7.4,10.8-8.8,17.6c-4.4,21,9.1,41.5,30,45.9c1.2,0.3,2.4,0.4,3.6,0.6c19.7,2.3,38.2-10.8,42.3-30.6
		C96.3,115.7,96.5,112.3,96.3,109.1z M57.9,141.4c-16.5,0-29.8-13.4-29.8-29.8c0-16.5,13.4-29.8,29.8-29.8
		c16.5,0,29.8,13.4,29.8,29.8C87.8,128,74.4,141.4,57.9,141.4z"/>
	<polyline class="st0" points="96,105.3 96,105.4 96.3,109 96.3,109.1 	"/>
	<path class="st0" d="M76,101.7c-1.6,1.7-5.4,0.1-5.7-0.1c-2-0.9-3-2.2-3.8-3.1c0,0-3.6-3.9-10.5-5.3c-8-1.7-14.7,4.9-15.5,3.8
		c-0.6-0.9,3.2-5.7,8.6-8.2c5.4-2.5,10.4-1.9,12.2-1.6c1.1,0.2,6,0.9,10.7,4.5c3.2,2.5,4,4.6,4.3,5.5C76.6,98,77.3,100.4,76,101.7z"
		/>
	<path class="st0" d="M160.5,96c0.2,0.8,0.9,3.2-0.3,4.5c-1.6,1.7-5.4,0.1-5.7-0.1c-2-0.9-3-2.2-3.8-3.1c0,0-3.6-3.9-10.5-5.3
		c-8-1.7-14.7,4.9-15.5,3.8c-0.6-0.9,3.2-5.7,8.6-8.2c5.4-2.5,10.4-1.9,12.2-1.6c1.1,0.2,6,0.9,10.7,4.5
		C159.4,92.9,160.2,95,160.5,96z"/>
	<path class="st0" d="M180.4,103.6c-1.4-6.8-4.5-12.7-8.8-17.6c-1.8-2-3.7-3.8-5.8-5.4c-4.6-3.5-9.9-5.9-15.7-7.1
		c-5-1-10.3-1.1-15.6,0.1c-2.1,0.4-4.2,1.1-6.1,1.8c-6.9,2.7-12.7,7.2-16.9,12.9c-3.8,5.1-6.4,11.1-7.4,17.5l0,0.1l-0.4,3.6v0
		c-0.2,3.3,0.1,6.6,0.8,10c4.1,19.8,22.7,32.9,42.3,30.6c1.2-0.1,2.4-0.3,3.6-0.6C171.3,145.1,184.8,124.6,180.4,103.6z
		 M142.1,141.8c-16.5,0-29.8-13.4-29.8-29.8c0-16.5,13.4-29.8,29.8-29.8c16.5,0,29.8,13.4,29.8,29.8
		C171.9,128.5,158.6,141.8,142.1,141.8z"/>
	<path class="st0" d="M143.9,60.3l-1-0.9c-3.8-3.4-8.8-5.4-14.2-5.4h0l-0.1-0.2c-0.9-2.7-3.7-4.2-6.4-3.5c-0.1,0-0.1,0-0.2,0l-3.3,1
		c-2.8,0.9-4.3,3.9-3.4,6.6l0.2,0.5c-2.9,2.2-5.1,5.2-6.6,8.5c-1.1-0.3-2.2-0.5-3.4-0.5H95.1c-1.3,0-2.6,0.2-3.8,0.6
		c-1.4-3.6-3.8-6.7-6.8-9.1l0.2-0.5c0.9-2.8-0.7-5.7-3.4-6.6l-3.3-1c-0.1,0-0.1,0-0.2,0c-2.7-0.8-5.6,0.7-6.4,3.5l-0.1,0.2h0
		c-5.5,0-10.4,2-14.2,5.4l-1,0.9L34.2,80.2c4.6-3.5,9.9-5.9,15.7-7.1c5-1,10.3-1.1,15.6,0.1c2.1,0.4,4.2,1.1,6.1,1.8
		c6.9,2.7,12.7,7.2,16.9,12.9c3.8,5.1,6.4,11.1,7.4,17.5l-1.5-14.8c3.6-1.2,7.5-1.2,11.1,0.1l-1.5,15.2c1-6.4,3.5-12.4,7.4-17.5
		c4.2-5.7,10-10.2,16.9-12.9c1.9-0.7,4-1.4,6.1-1.8c5.3-1.1,10.6-1.1,15.6-0.1c5.7,1.1,11.1,3.6,15.7,7.1L143.9,60.3z M106.1,85.4
		l-1.3-0.3c-3.2-0.7-6.4-0.7-9.6,0l-1.3,0.3L93.4,80c1.7-0.7,3.8-1.4,6.3-1.6c2.7-0.2,5,0.3,7,1L106.1,85.4z"/>
	<polyline class="st0" points="103.7,109.5 103.7,109.5 104,105.9 104,105.7 	"/>
	<path class="st0" d="M160.2,100.5c-1.6,1.7-5.4,0.1-5.7-0.1c-2-0.9-3-2.2-3.8-3.1c0,0-3.6-3.9-10.5-5.3c-8-1.7-14.7,4.9-15.5,3.8
		c-0.6-0.9,3.2-5.7,8.6-8.2c5.4-2.5,10.4-1.9,12.2-1.6c1.1,0.2,6,0.9,10.7,4.5c3.2,2.5,4,4.6,4.3,5.5
		C160.7,96.8,161.4,99.2,160.2,100.5z"/>
	<path class="st0" d="M76,101.7c-1.6,1.7-5.4,0.1-5.7-0.1c-2-0.9-3-2.2-3.8-3.1c0,0-3.6-3.9-10.5-5.3c-8-1.7-14.7,4.9-15.5,3.8
		c-0.6-0.9,3.2-5.7,8.6-8.2c5.4-2.5,10.4-1.9,12.2-1.6c1.1,0.2,6,0.9,10.7,4.5c3.2,2.5,4,4.6,4.3,5.5C76.6,98,77.3,100.4,76,101.7z"
		/>
	<path class="st0" d="M160.2,100.5c-1.6,1.7-5.4,0.1-5.7-0.1c-2-0.9-3-2.2-3.8-3.1c0,0-3.6-3.9-10.5-5.3c-8-1.7-14.7,4.9-15.5,3.8
		c-0.6-0.9,3.2-5.7,8.6-8.2c5.4-2.5,10.4-1.9,12.2-1.6c1.1,0.2,6,0.9,10.7,4.5c3.2,2.5,4,4.6,4.3,5.5
		C160.7,96.8,161.4,99.2,160.2,100.5z"/>
</g>
<g id="Layer_3">
</g>
</svg>
