<?xml version="1.0" encoding="utf-8"?>
<!-- Generator: Adobe Illustrator 25.2.0, SVG Export Plug-In . SVG Version: 6.00 Build 0)  -->
<svg version="1.1" id="Layer_1" xmlns="http://www.w3.org/2000/svg" xmlns:xlink="http://www.w3.org/1999/xlink" x="0px" y="0px"
	 viewBox="0 0 50 50" style="enable-background:new 0 0 50 50;" xml:space="preserve">
<style type="text/css">
	.st0{stroke:#000000;stroke-miterlimit:10;}
</style>
<path class="st0" d="M42.08,26.85H7.92c-0.95,0-1.71-0.77-1.71-1.71v-0.27c0-0.95,0.77-1.71,1.71-1.71h34.16
	c0.95,0,1.71,0.77,1.71,1.71v0.27C43.79,26.08,43.03,26.85,42.08,26.85z"/>
<path class="st0" d="M42.11,13.03H7.95c-0.95,0-1.71-0.77-1.71-1.71v-0.27c0-0.95,0.77-1.71,1.71-1.71h34.16
	c0.95,0,1.71,0.77,1.71,1.71v0.27C43.82,12.26,43.05,13.03,42.11,13.03z"/>
<path class="st0" d="M42.08,40.76H7.93c-0.95,0-1.71-0.77-1.71-1.71v-0.27c0-0.95,0.77-1.71,1.71-1.71h34.16
	c0.95,0,1.71,0.77,1.71,1.71v0.27C43.8,39.99,43.03,40.76,42.08,40.76z"/>
</svg>
